<svg xmlns="http://www.w3.org/2000/svg" width="600" height="400" viewBox="0 0 600 400"><rect width="100%" height="100%" fill="#1a1a2e"/><path fill="#FFFFFF" d="M142.135 187.275h-16.05v10.02h12.65v5.18h-12.65v10.22h16.05v5.38h-22.8v-36.15h22.8zm19.1 17.3 8.78 13.5h-5.95q-.68 0-1.09-.35t-.69-.8l-5.42-8.93q-.13.43-.29.8-.16.38-.36.7l-4.8 7.43q-.28.42-.68.79-.4.36-1 .36h-5.52l8.8-13.23-8.45-12.42h5.95q.67 0 1 .19.32.18.57.61l5.38 8.55q.27-.85.77-1.68l4.33-6.75q.55-.92 1.42-.92h5.68zm20.53 13.9q-3.35 0-5.14-1.89t-1.79-5.21v-14.33h-2.62q-.5 0-.85-.32-.35-.33-.35-.98v-2.45l4.12-.67 1.3-7q.13-.5.48-.78.35-.27.9-.27h3.2v8.07h6.85v4.4h-6.85v13.9q0 1.2.58 1.88.59.67 1.62.67.57 0 .96-.13.39-.14.67-.29.29-.15.52-.29.22-.14.45-.14.27 0 .45.14.17.14.37.41l1.85 3q-1.35 1.13-3.1 1.7-1.75.58-3.62.58m15.5-24.5.37 2.9q1.2-2.3 2.85-3.61 1.65-1.32 3.9-1.32 1.78 0 2.85.78l-.4 4.62q-.12.45-.36.64t-.64.19q-.37 0-1.11-.13-.74-.12-1.44-.12-1.02 0-1.82.3t-1.44.86-1.13 1.36q-.48.81-.91 1.83v15.8h-6.17v-25.65h3.62q.95 0 1.33.34.37.33.5 1.21m18.07 8.32h11.65q0-1.2-.34-2.26-.33-1.06-1.01-1.86-.67-.8-1.71-1.26-1.04-.47-2.41-.47-2.68 0-4.22 1.53-1.53 1.53-1.96 4.32m15.75 3.73h-15.87q.15 1.97.7 3.41t1.45 2.38q.9.93 2.13 1.4 1.24.46 2.74.46t2.59-.35 1.9-.78q.81-.42 1.42-.77.62-.35 1.19-.35.78 0 1.15.57l1.78 2.25q-1.03 1.2-2.3 2.02-1.28.81-2.67 1.3-1.38.48-2.82.69-1.44.2-2.79.2-2.67 0-4.97-.89t-4-2.63-2.68-4.3q-.97-2.56-.97-5.94 0-2.62.85-4.93.85-2.32 2.43-4.03 1.59-1.71 3.88-2.71t5.16-1q2.43 0 4.48.77 2.05.78 3.52 2.27 1.48 1.48 2.31 3.65.84 2.16.84 4.93 0 1.4-.3 1.89t-1.15.49m12.25 12.05h-6.17v-25.65h3.77q1.2 0 1.58 1.12l.4 1.9q.67-.75 1.41-1.37.74-.63 1.57-1.08.84-.45 1.8-.71.97-.26 2.12-.26 2.42 0 3.98 1.31 1.57 1.31 2.34 3.49.6-1.28 1.5-2.19t1.98-1.49q1.07-.57 2.28-.85 1.22-.27 2.44-.27 2.13 0 3.78.65t2.77 1.9q1.13 1.25 1.71 3.05.59 1.8.59 4.13v16.32h-6.17v-16.32q0-2.46-1.08-3.69-1.07-1.24-3.15-1.24-.95 0-1.76.32-.81.33-1.43.94-.61.61-.96 1.54-.35.92-.35 2.13v16.32h-6.2v-16.32q0-2.58-1.04-3.76-1.03-1.17-3.03-1.17-1.35 0-2.52.66-1.16.66-2.16 1.81zm40.58-15.78h11.65q0-1.2-.34-2.26t-1.01-1.86q-.68-.8-1.72-1.26-1.03-.47-2.41-.47-2.67 0-4.21 1.53t-1.96 4.32m15.75 3.73h-15.88q.15 1.97.7 3.41t1.45 2.38q.9.93 2.14 1.4 1.24.46 2.74.46t2.58-.35q1.09-.35 1.9-.78.82-.42 1.43-.77t1.19-.35q.77 0 1.15.57l1.77 2.25q-1.02 1.2-2.3 2.02-1.27.81-2.66 1.3-1.39.48-2.83.69-1.43.2-2.78.2-2.68 0-4.98-.89t-4-2.63-2.67-4.3q-.98-2.56-.98-5.94 0-2.62.85-4.93.85-2.32 2.44-4.03t3.87-2.71q2.29-1 5.17-1 2.42 0 4.47.77 2.05.78 3.53 2.27 1.47 1.48 2.31 3.65.84 2.16.84 4.93 0 1.4-.3 1.89t-1.15.49m25.92-6.9h4.2q1.9 0 3.31-.48 1.42-.47 2.33-1.31t1.36-1.99.45-2.52q0-2.75-1.81-4.23-1.81-1.47-5.54-1.47h-4.3zm12.45 5.6 9.05 13.35h-6.07q-1.73 0-2.5-1.35l-7.6-11.58q-.43-.65-.94-.92-.51-.28-1.51-.28h-2.88v14.13h-6.72v-36.15h11.02q3.68 0 6.31.76 2.64.76 4.33 2.14 1.69 1.37 2.49 3.29.8 1.91.8 4.21 0 1.82-.54 3.45-.54 1.62-1.55 2.95-1.01 1.32-2.5 2.32t-3.39 1.58q.65.37 1.2.89.55.51 1 1.21m27.93-12.3h6.17v25.65h-3.77q-1.23 0-1.55-1.13l-.43-2.05q-1.57 1.6-3.47 2.59t-4.48.99q-2.1 0-3.71-.71-1.61-.72-2.71-2.02t-1.67-3.08q-.56-1.79-.56-3.94v-16.3h6.18v16.3q0 2.35 1.08 3.64 1.09 1.29 3.27 1.29 1.6 0 3-.72 1.4-.71 2.65-1.96zm17.62 1.12.43 2.03q.77-.78 1.63-1.44.87-.66 1.83-1.12.96-.47 2.06-.73t2.4-.26q2.1 0 3.73.71 1.62.71 2.71 2t1.65 3.08q.56 1.78.56 3.94v16.32h-6.17v-16.32q0-2.36-1.08-3.64-1.07-1.29-3.27-1.29-1.6 0-3 .72-1.4.73-2.65 1.98v18.55h-6.18v-25.65h3.78q1.2 0 1.57 1.12m37.9-.97-3.25-.58q.38-2.6 1.45-4.56 1.08-1.96 2.69-3.27 1.61-1.32 3.7-1.98t4.49-.66q2.5 0 4.51.71t3.44 1.98q1.42 1.26 2.18 2.96.77 1.7.77 3.67 0 1.73-.39 3.04t-1.11 2.29q-.73.97-1.8 1.65-1.08.67-2.43 1.12 3.25 1.03 4.85 3.13t1.6 5.27q0 2.7-1 4.78-1 2.07-2.7 3.49-1.7 1.41-3.94 2.13-2.23.73-4.73.73-2.73 0-4.75-.63-2.03-.62-3.53-1.85-1.5-1.22-2.55-3-1.05-1.77-1.8-4.1l2.73-1.12q1.07-.45 2.01-.24t1.36 1.01q.45.88.99 1.73t1.29 1.51 1.76 1.08q1.01.41 2.41.41 1.58 0 2.75-.51 1.18-.52 1.96-1.34.79-.83 1.18-1.84t.39-2.04q0-1.3-.28-2.36-.27-1.06-1.15-1.81-.87-.75-2.51-1.18-1.64-.42-4.39-.42v-4.4q2.28-.03 3.78-.43t2.38-1.11q.89-.71 1.24-1.71t.35-2.2q0-2.55-1.42-3.88-1.43-1.32-3.8-1.32-1.1 0-2.03.31-.92.31-1.66.88-.74.56-1.24 1.31t-.75 1.65q-.42 1.15-1.11 1.52-.69.38-1.94.18m59.18 7.43q0 3.97-1.33 7.29-1.32 3.33-3.72 5.73t-5.78 3.72q-3.37 1.33-7.5 1.33h-13.77v-36.15h13.77q4.13 0 7.5 1.34 3.38 1.33 5.78 3.72t3.72 5.71q1.33 3.33 1.33 7.31m-6.9 0q0-2.98-.79-5.34-.79-2.37-2.28-4-1.48-1.64-3.6-2.52-2.11-.87-4.76-.87h-7.02v25.45h7.02q2.65 0 4.76-.88 2.12-.87 3.6-2.51 1.49-1.64 2.28-4t.79-5.33"/></svg>