<svg xmlns="http://www.w3.org/2000/svg" width="600" height="400" viewBox="0 0 600 400"><rect width="100%" height="100%" fill="#1a1a2e"/><path fill="#FFFFFF" d="M152.64 200.4h19.2v23.4q-4.4 3.24-9.38 4.74t-10.66 1.5q-7.08 0-12.82-2.2t-9.8-6.12-6.26-9.36-2.2-11.88q0-6.52 2.12-11.96t6.02-9.36 9.46-6.08 12.48-2.16q3.52 0 6.58.56t5.68 1.54 4.78 2.38 3.96 3.08l-3.08 4.88q-.72 1.16-1.88 1.42t-2.52-.58l-2.64-1.52q-1.32-.76-2.94-1.32t-3.64-.92-4.66-.36q-4.28 0-7.74 1.44t-5.9 4.12-3.76 6.44-1.32 8.4q0 4.96 1.42 8.86t4 6.6 6.22 4.12 8.12 1.42q3.2 0 5.72-.68t4.92-1.84v-10.48h-7.28q-1.04 0-1.62-.58t-.58-1.42zm46.2-12.68q4.56 0 8.3 1.48t6.4 4.2 4.1 6.64 1.44 8.76q0 4.88-1.44 8.8t-4.1 6.68-6.4 4.24-8.3 1.48q-4.6 0-8.36-1.48t-6.42-4.24-4.12-6.68-1.46-8.8q0-4.84 1.46-8.76t4.12-6.64 6.42-4.2 8.36-1.48m0 34.68q5.12 0 7.58-3.44t2.46-10.08-2.46-10.12-7.58-3.48q-5.2 0-7.7 3.5t-2.5 10.1 2.5 10.06 7.7 3.46m27.92-52.44h9.88v59.44h-9.88zm32.52 59.44h-9.88v-33.6l-3.56-.56q-1.16-.24-1.86-.82t-.7-1.66v-4.04h6.12v-3.04q0-3.52 1.06-6.32t3.04-4.76 4.82-3 6.4-1.04q2.84 0 5.28.76l-.2 4.96q-.04.56-.32.9t-.74.52-1.06.24-1.28.06q-1.76 0-3.14.38t-2.34 1.32-1.46 2.48-.5 3.82v2.72h10.68v7.04h-10.36zm92.08-28.92q0 6.36-2.1 11.78t-5.94 9.38-9.24 6.18-12 2.22q-6.56 0-11.96-2.22t-9.26-6.18-5.98-9.38-2.12-11.78 2.12-11.78 5.98-9.38 9.26-6.18 11.96-2.22q4.4 0 8.28 1.02t7.12 2.88 5.82 4.52 4.38 5.94 2.74 7.12.94 8.08m-11 0q0-4.76-1.28-8.54t-3.64-6.42-5.74-4.04-7.62-1.4-7.62 1.4-5.76 4.04-3.66 6.42-1.28 8.54 1.28 8.54 3.66 6.4 5.76 4.02 7.62 1.4 7.62-1.4 5.74-4.02 3.64-6.4 1.28-8.54m27.64-9.64.6 4.64q1.92-3.68 4.56-5.78t6.24-2.1q2.84 0 4.56 1.24l-.64 7.4q-.2.72-.58 1.02t-1.02.3q-.6 0-1.78-.2t-2.3-.2q-1.64 0-2.92.48t-2.3 1.38-1.8 2.18-1.46 2.92v25.28h-9.88v-41.04h5.8q1.52 0 2.12.54t.8 1.94m31 9.52v18.4q1.68 2.04 3.66 2.88t4.18.84q2.28 0 4.1-.82t3.1-2.56 1.96-4.44.68-6.46q0-6.76-2.24-9.78T408 195.4q-2.84 0-4.96 1.3t-4.04 3.66m0-30.4v23.44q2.48-2.6 5.5-4.14t6.9-1.54q3.56 0 6.42 1.4t4.88 4.02 3.1 6.34 1.08 8.36q0 5-1.24 9.08t-3.54 6.98-5.54 4.5-7.2 1.6q-1.92 0-3.48-.38t-2.88-1.06-2.42-1.66-2.1-2.18l-.44 2.76q-.24 1.04-.82 1.48t-1.58.44h-6.52v-59.44zm35.84 18.4h9.92v41.04h-9.92zm11.28-11.96q0 1.28-.52 2.4t-1.38 1.96-2.02 1.34-2.48.5q-1.28 0-2.42-.5t-1.98-1.34-1.34-1.96-.5-2.4q0-1.32.5-2.48t1.34-2 1.98-1.34 2.42-.5q1.32 0 2.48.5t2.02 1.34 1.38 2 .52 2.48m22.4 53.64q-5.36 0-8.22-3.02t-2.86-8.34v-22.92h-4.2q-.8 0-1.36-.52t-.56-1.56v-3.92l6.6-1.08 2.08-11.2q.2-.8.76-1.24t1.44-.44h5.12v12.92h10.96v7.04h-10.96V218q0 1.92.94 3t2.58 1.08q.92 0 1.54-.22t1.08-.46.82-.46.72-.22q.44 0 .72.22t.6.66l2.96 4.8q-2.16 1.8-4.96 2.72t-5.8.92"/></svg>