<svg xmlns="http://www.w3.org/2000/svg" width="600" height="400" viewBox="0 0 600 400"><rect width="100%" height="100%" fill="#1a1a2e"/><path fill="#FFFFFF" d="M152.09 180.805v5.96h-11.77v33.08h-7.26v-33.08h-11.77v-5.96zm21.28 11.34h6.67v27.7h-4.08q-1.32 0-1.67-1.22l-.46-2.21q-1.7 1.73-3.76 2.8-2.05 1.06-4.83 1.06-2.27 0-4.01-.77t-2.93-2.17q-1.18-1.41-1.79-3.34t-.61-4.25v-17.6h6.67v17.6q0 2.54 1.17 3.93 1.18 1.39 3.53 1.39 1.72 0 3.24-.77 1.51-.77 2.86-2.12zm19.14 1.67.41 3.13q1.29-2.48 3.07-3.9 1.79-1.41 4.22-1.41 1.91 0 3.08.83l-.44 5q-.13.48-.39.69-.25.2-.69.2-.4 0-1.2-.14-.79-.13-1.55-.13-1.11 0-1.97.32-.87.33-1.55.93-.69.61-1.22 1.47-.53.87-.99 1.98v17.06h-6.66v-27.7h3.91q1.03 0 1.43.36.41.37.54 1.31m20.93 6.43v12.42q1.13 1.38 2.47 1.94 1.33.57 2.82.57 1.54 0 2.77-.55 1.23-.56 2.09-1.73.86-1.18 1.32-3t.46-4.36q0-4.56-1.51-6.6t-4.35-2.04q-1.92 0-3.35.88-1.43.87-2.72 2.47m0-20.52v15.82q1.67-1.75 3.71-2.79t4.66-1.04q2.4 0 4.33.94 1.93.95 3.29 2.71 1.37 1.77 2.1 4.28.73 2.52.73 5.65 0 3.37-.84 6.13-.84 2.75-2.39 4.71t-3.74 3.03q-2.19 1.08-4.86 1.08-1.3 0-2.35-.25-1.05-.26-1.94-.72t-1.64-1.12q-.74-.66-1.41-1.47l-.3 1.86q-.16.71-.55 1-.4.3-1.07.3h-4.4v-40.12zm36.23 11.99q3.08 0 5.6 1 2.53.99 4.32 2.83 1.8 1.84 2.77 4.48.97 2.65.97 5.92 0 3.29-.97 5.94-.97 2.64-2.77 4.5-1.79 1.87-4.32 2.87-2.52.99-5.6.99-3.1 0-5.64-.99-2.54-1-4.34-2.87-1.79-1.86-2.78-4.5-.98-2.65-.98-5.94 0-3.27.98-5.92.99-2.64 2.78-4.48 1.8-1.84 4.34-2.83 2.54-1 5.64-1m0 23.41q3.46 0 5.12-2.33 1.66-2.32 1.66-6.8t-1.66-6.83-5.12-2.35q-3.51 0-5.2 2.36-1.68 2.36-1.68 6.82 0 4.45 1.68 6.79 1.69 2.34 5.2 2.34m40.2-15.75h4.54q2.05 0 3.58-.51 1.52-.51 2.51-1.42.98-.9 1.47-2.14.49-1.25.49-2.73 0-2.97-1.96-4.56-1.96-1.6-5.98-1.6h-4.65zm13.45 6.05 9.77 14.42h-6.56q-1.86 0-2.7-1.46l-8.21-12.5q-.45-.7-1.01-1-.55-.29-1.63-.29h-3.11v15.25h-7.26v-39.04h11.91q3.97 0 6.82.82 2.84.82 4.67 2.31 1.82 1.49 2.68 3.55.87 2.07.87 4.55 0 1.97-.58 3.73-.58 1.75-1.68 3.18-1.09 1.43-2.7 2.51-1.6 1.08-3.66 1.7.71.41 1.3.96.59.56 1.08 1.31m27.59 7.26v-4.67q-2.89.14-4.86.5-1.97.37-3.16.94-1.18.56-1.7 1.32-.51.75-.51 1.65 0 1.75 1.04 2.51 1.04.75 2.71.75 2.06 0 3.55-.74 1.5-.74 2.93-2.26m-14.09-14.55-1.19-2.13q4.78-4.37 11.5-4.37 2.43 0 4.35.79 1.92.8 3.24 2.22 1.32 1.41 2.01 3.38.69 1.98.69 4.32v17.5h-3.02q-.95 0-1.46-.28-.51-.29-.81-1.15l-.6-2q-1.05.95-2.05 1.66-1 .72-2.08 1.2-1.08.49-2.3.75-1.23.25-2.72.25-1.75 0-3.24-.47-1.48-.47-2.56-1.42-1.08-.94-1.68-2.35-.59-1.4-.59-3.26 0-1.06.35-2.1t1.15-1.98q.79-.95 2.06-1.78 1.27-.84 3.12-1.46t4.31-1.01q2.45-.39 5.61-.48v-1.62q0-2.78-1.18-4.11-1.19-1.34-3.43-1.34-1.62 0-2.69.38t-1.88.85-1.47.85-1.47.38q-.7 0-1.19-.37-.48-.36-.78-.85m48.46-2.56-1.75 2.43q-.3.38-.58.59-.28.22-.82.22-.52 0-1-.31-.49-.31-1.16-.71-.68-.39-1.61-.7t-2.31-.31q-1.75 0-3.08.64-1.32.63-2.2 1.82t-1.31 2.87q-.43 1.69-.43 3.83 0 2.21.47 3.94.48 1.73 1.37 2.9t2.16 1.78 2.86.61 2.58-.39q.98-.39 1.66-.87.67-.47 1.17-.86t1.12-.39q.81 0 1.22.62l1.92 2.43q-1.11 1.3-2.41 2.17-1.29.88-2.68 1.41-1.4.52-2.87.74-1.47.21-2.93.21-2.56 0-4.83-.95-2.27-.96-3.97-2.8-1.7-1.83-2.68-4.49-.99-2.66-.99-6.06 0-3.06.88-5.66.87-2.61 2.58-4.51 1.7-1.9 4.21-2.98t5.78-1.08q3.1 0 5.44 1 2.33.99 4.19 2.86m9.7 7.23h12.58q0-1.29-.36-2.44-.37-1.15-1.1-2.01-.73-.87-1.85-1.37t-2.6-.5q-2.89 0-4.55 1.65t-2.12 4.67m17.01 4.03h-17.15q.16 2.13.76 3.68.59 1.55 1.56 2.57.98 1.01 2.31 1.51 1.34.5 2.96.5t2.79-.38q1.18-.38 2.06-.84.87-.46 1.54-.83.66-.38 1.28-.38.83 0 1.24.62l1.92 2.43q-1.11 1.3-2.49 2.17-1.37.88-2.87 1.41-1.5.52-3.05.74-1.56.21-3.01.21-2.89 0-5.38-.95-2.48-.96-4.32-2.84-1.83-1.87-2.89-4.64-1.05-2.77-1.05-6.42 0-2.83.92-5.33.92-2.49 2.63-4.34 1.72-1.85 4.19-2.93t5.57-1.08q2.62 0 4.83.83 2.22.84 3.81 2.45 1.6 1.6 2.5 3.94.9 2.33.9 5.33 0 1.51-.32 2.04t-1.24.53m22.81-14.53-3.51-.62q.41-2.81 1.57-4.93t2.9-3.54q1.74-1.41 4-2.13 2.25-.71 4.84-.71 2.7 0 4.88.77 2.17.76 3.71 2.13 1.54 1.36 2.36 3.2.83 1.83.83 3.97 0 1.86-.42 3.28t-1.2 2.47q-.79 1.05-1.95 1.78t-2.62 1.21q3.51 1.11 5.24 3.38t1.73 5.7q0 2.91-1.08 5.15-1.08 2.25-2.92 3.77-1.83 1.53-4.25 2.31t-5.12.78q-2.94 0-5.13-.67-2.18-.68-3.8-2t-2.76-3.24q-1.13-1.92-1.94-4.43l2.94-1.21q1.16-.49 2.18-.26 1.01.23 1.47 1.09.48.95 1.06 1.87.58.91 1.39 1.63.81.71 1.91 1.16 1.09.45 2.6.45 1.7 0 2.97-.56 1.27-.55 2.12-1.44t1.27-1.99q.42-1.09.42-2.2 0-1.4-.3-2.55-.29-1.15-1.24-1.96-.94-.81-2.71-1.26-1.77-.46-4.74-.46v-4.76q2.46-.02 4.08-.46 1.62-.43 2.57-1.2.96-.77 1.34-1.85t.38-2.37q0-2.76-1.54-4.19t-4.1-1.43q-1.19 0-2.19.34t-1.8.94q-.79.61-1.33 1.42t-.81 1.78q-.46 1.25-1.2 1.65-.75.41-2.1.19m63.91 8.02q0 4.29-1.43 7.88t-4.02 6.19q-2.59 2.59-6.24 4.02-3.64 1.43-8.1 1.43h-14.88v-39.04h14.88q4.46 0 8.1 1.44 3.65 1.45 6.24 4.03 2.59 2.57 4.02 6.16 1.43 3.6 1.43 7.89m-7.45 0q0-3.21-.85-5.77-.85-2.55-2.46-4.32-1.6-1.76-3.89-2.71-2.28-.94-5.14-.94h-7.59v27.48h7.59q2.86 0 5.14-.94 2.29-.95 3.89-2.72 1.61-1.77 2.46-4.32t.85-5.76"/></svg>