<svg xmlns="http://www.w3.org/2000/svg" width="600" height="400" viewBox="0 0 600 400"><rect width="100%" height="100%" fill="#1a1a2e"/><path fill="#FFFFFF" d="M130.67 195.48H137q2.33 0 4.06-.58 1.74-.58 2.89-1.67t1.71-2.65q.57-1.56.57-3.48 0-1.82-.57-3.31-.56-1.48-1.7-2.51-1.13-1.04-2.86-1.6-1.74-.55-4.1-.55h-6.33zm-8.47-22.9H137q4.57 0 7.91 1.07t5.51 2.99q2.17 1.93 3.23 4.6 1.05 2.68 1.05 5.86 0 3.31-1.1 6.07-1.1 2.75-3.31 4.74-2.2 1.98-5.52 3.08-3.33 1.11-7.77 1.11h-6.33v16.03h-8.47zm54.84 37.2v-5.45q-3.37.16-5.67.59-2.3.42-3.69 1.08-1.38.66-1.98 1.55-.6.88-.6 1.92 0 2.04 1.21 2.93 1.21.88 3.17.88 2.39 0 4.14-.87 1.75-.86 3.42-2.63m-16.45-16.98-1.38-2.48q5.57-5.11 13.42-5.11 2.83 0 5.07.93t3.78 2.58q1.54 1.66 2.35 3.96.8 2.3.8 5.04v20.41h-3.53q-1.1 0-1.7-.33t-.94-1.34l-.7-2.33q-1.23 1.1-2.39 1.94-1.17.83-2.43 1.4t-2.69.86q-1.43.3-3.17.3-2.04 0-3.78-.55-1.73-.55-2.99-1.65t-1.95-2.74-.69-3.81q0-1.23.4-2.44.41-1.22 1.34-2.32t2.41-2.08 3.64-1.7 5.03-1.18q2.86-.46 6.55-.55v-1.89q0-3.25-1.39-4.81-1.38-1.55-4-1.55-1.89 0-3.13.44-1.25.44-2.19.99-.95.55-1.72.99t-1.72.44q-.81 0-1.38-.42-.57-.43-.92-1m39.13 2.46v14.49q1.32 1.61 2.88 2.27t3.39.66q1.76 0 3.18-.66t2.41-2.02q.99-1.35 1.53-3.41.53-2.07.53-4.87 0-2.84-.46-4.81-.45-1.96-1.3-3.19t-2.07-1.8q-1.21-.56-2.75-.56-2.43 0-4.13 1.02t-3.21 2.88m-1.04-8.03.63 2.99q1.98-2.24 4.5-3.62 2.52-1.39 5.92-1.39 2.65 0 4.84 1.1 2.19 1.11 3.78 3.2 1.59 2.1 2.46 5.17.86 3.07.86 7.04 0 3.62-.97 6.71-.98 3.08-2.79 5.35t-4.38 3.55q-2.57 1.27-5.75 1.27-2.71 0-4.63-.83-1.92-.84-3.43-2.32v13.23h-7.78v-42.87h4.75q1.52 0 1.99 1.42m35.18 11.02h14.68q0-1.51-.42-2.85-.43-1.34-1.28-2.34-.85-1.01-2.16-1.59-1.3-.59-3.04-.59-3.37 0-5.3 1.92-1.94 1.93-2.48 5.45m19.85 4.7h-20q.19 2.49.88 4.3t1.83 2.99q1.13 1.18 2.69 1.76 1.56.59 3.45.59t3.26-.45q1.37-.44 2.39-.97 1.03-.54 1.8-.98t1.49-.44q.98 0 1.45.73l2.24 2.83q-1.29 1.51-2.9 2.54-1.61 1.02-3.35 1.63-1.75.62-3.56.87t-3.52.25q-3.37 0-6.26-1.12-2.9-1.11-5.04-3.3-2.15-2.19-3.37-5.42-1.23-3.23-1.23-7.48 0-3.31 1.07-6.22 1.07-2.92 3.07-5.08 2-2.15 4.88-3.41t6.51-1.26q3.05 0 5.64.97 2.58.98 4.44 2.85 1.86 1.88 2.91 4.6 1.06 2.73 1.06 6.22 0 1.77-.38 2.38-.38.62-1.45.62m14.52-15.19.47 3.66q1.51-2.9 3.59-4.55 2.08-1.66 4.92-1.66 2.23 0 3.59.98l-.51 5.83q-.15.56-.45.8t-.81.24q-.47 0-1.4-.16t-1.81-.16q-1.29 0-2.3.38t-1.81 1.09q-.8.7-1.42 1.71-.61 1.01-1.15 2.3v19.91h-7.78v-32.32h4.57q1.2 0 1.67.43.47.42.63 1.52m41.64 7.72h6.33q2.34 0 4.07-.58t2.88-1.67 1.72-2.65q.56-1.56.56-3.48 0-1.82-.56-3.31-.57-1.48-1.7-2.51-1.14-1.04-2.87-1.6-1.73-.55-4.1-.55h-6.33zm-8.47-22.9h14.8q4.57 0 7.91 1.07t5.51 2.99q2.18 1.93 3.23 4.6 1.06 2.68 1.06 5.86 0 3.31-1.1 6.07-1.11 2.75-3.31 4.74-2.21 1.98-5.53 3.08-3.32 1.11-7.77 1.11h-6.33v16.03h-8.47zm37.86-1.26h7.78v46.81h-7.78zm32.64 38.46v-5.45q-3.37.16-5.67.59-2.3.42-3.69 1.08-1.38.66-1.98 1.55-.6.88-.6 1.92 0 2.04 1.21 2.93 1.21.88 3.17.88 2.39 0 4.14-.87 1.75-.86 3.42-2.63m-16.45-16.98-1.38-2.48q5.57-5.11 13.42-5.11 2.83 0 5.07.93 2.23.93 3.78 2.58 1.54 1.66 2.34 3.96.81 2.3.81 5.04v20.41h-3.53q-1.1 0-1.7-.33t-.95-1.34l-.69-2.33q-1.23 1.1-2.39 1.94-1.17.83-2.43 1.4t-2.69.86q-1.43.3-3.17.3-2.04 0-3.78-.55-1.73-.55-2.99-1.65t-1.95-2.74q-.7-1.64-.7-3.81 0-1.23.41-2.44.41-1.22 1.34-2.32t2.41-2.08 3.64-1.7 5.02-1.18q2.87-.46 6.56-.55v-1.89q0-3.25-1.39-4.81-1.39-1.55-4-1.55-1.89 0-3.13.44-1.25.44-2.19.99-.95.55-1.72.99t-1.72.44q-.82 0-1.38-.42-.57-.43-.92-1m38.09-5.57.53 2.55q.98-.98 2.07-1.81 1.08-.84 2.3-1.42 1.21-.58 2.59-.91 1.39-.33 3.03-.33 2.64 0 4.69.89 2.05.9 3.42 2.52 1.37 1.63 2.08 3.88t.71 4.96v20.57h-7.78v-20.57q0-2.96-1.36-4.58-1.35-1.62-4.12-1.62-2.02 0-3.78.91-1.77.91-3.34 2.49v23.37h-7.78v-32.32h4.75q1.51 0 1.99 1.42m34.93 11.02h14.68q0-1.51-.43-2.85-.42-1.34-1.27-2.34-.85-1.01-2.16-1.59-1.31-.59-3.04-.59-3.37 0-5.31 1.92-1.93 1.93-2.47 5.45m19.85 4.7h-20.01q.19 2.49.89 4.3.69 1.81 1.82 2.99 1.14 1.18 2.7 1.76 1.55.59 3.44.59t3.26-.45q1.38-.44 2.4-.97 1.02-.54 1.79-.98.78-.44 1.5-.44.98 0 1.45.73l2.24 2.83q-1.3 1.51-2.9 2.54-1.61 1.02-3.36 1.63-1.74.62-3.56.87-1.81.25-3.51.25-3.37 0-6.27-1.12-2.89-1.11-5.04-3.3-2.14-2.19-3.37-5.42t-1.23-7.48q0-3.31 1.08-6.22 1.07-2.92 3.07-5.08 2-2.15 4.88-3.41t6.5-1.26q3.06 0 5.64.97 2.59.98 4.44 2.85 1.86 1.88 2.92 4.6 1.05 2.73 1.05 6.22 0 1.77-.38 2.38-.37.62-1.44.62m29.13-13.64-1.76 2.8q-.32.5-.66.71-.35.2-.88.2-.57 0-1.22-.31-.64-.32-1.49-.71t-1.94-.71q-1.09-.31-2.57-.31-2.3 0-3.6.97-1.31.98-1.31 2.55 0 1.04.68 1.75.67.71 1.79 1.25 1.12.53 2.54.96 1.41.42 2.88.93 1.46.5 2.88 1.15 1.42.64 2.54 1.64 1.12.99 1.79 2.37.68 1.39.68 3.34 0 2.33-.84 4.3-.83 1.97-2.47 3.4-1.64 1.44-4.05 2.24t-5.56.8q-1.66 0-3.26-.3-1.59-.29-3.05-.83-1.47-.54-2.71-1.26t-2.19-1.57l1.8-2.97q.34-.53.82-.82.47-.28 1.19-.28.73 0 1.37.41.65.41 1.5.88.85.48 2 .88 1.15.41 2.91.41 1.39 0 2.38-.33t1.64-.86q.64-.54.94-1.25t.3-1.46q0-1.14-.67-1.86-.68-.72-1.8-1.26t-2.55-.96q-1.43-.43-2.93-.93t-2.93-1.18-2.55-1.72-1.8-2.55q-.67-1.51-.67-3.65 0-1.99.78-3.78.79-1.8 2.32-3.14t3.81-2.14 5.28-.8q3.34 0 6.08 1.1t4.56 2.9"/></svg>