<svg xmlns="http://www.w3.org/2000/svg" width="600" height="400" viewBox="0 0 600 400"><rect width="100%" height="100%" fill="#1a1a2e"/><path fill="#FFFFFF" d="M149.585 180.445h6.52v39.77h-3.8q-.88 0-1.47-.29t-1.14-.97l-20.76-26.51q.16 1.81.16 3.35v24.42h-6.51v-39.77h3.87q.47 0 .82.05.34.04.6.16t.51.36q.25.23.55.62l20.84 26.62q-.08-.97-.13-1.9-.06-.93-.06-1.73zm31.82 11.56h6.79v28.21h-4.15q-1.35 0-1.71-1.24l-.46-2.25q-1.74 1.76-3.83 2.84-2.09 1.09-4.92 1.09-2.31 0-4.08-.78-1.78-.79-2.99-2.22t-1.82-3.39q-.62-1.97-.62-4.34v-17.92h6.79v17.92q0 2.59 1.2 4.01 1.19 1.41 3.58 1.41 1.76 0 3.3-.78t2.92-2.16zm22.91 28.65q-3.69 0-5.65-2.08-1.97-2.07-1.97-5.73v-15.76h-2.89q-.55 0-.93-.35-.39-.36-.39-1.08v-2.69l4.54-.75 1.43-7.7q.14-.54.52-.85.39-.3.99-.3h3.52v8.88h7.54v4.84h-7.54v15.29q0 1.32.65 2.06.64.75 1.77.75.63 0 1.06-.15t.74-.32q.32-.17.57-.32.24-.15.49-.15.3 0 .5.15.19.15.41.46l2.03 3.3q-1.48 1.24-3.41 1.87-1.92.63-3.98.63m29.81-25.6-1.54 2.45q-.28.44-.58.61-.3.18-.77.18-.5 0-1.06-.27-.56-.28-1.31-.62-.74-.35-1.69-.62-.95-.28-2.24-.28-2.01 0-3.15.86-1.14.85-1.14 2.22 0 .91.59 1.53t1.57 1.09q.98.46 2.21.84 1.24.37 2.52.81t2.52 1q1.23.57 2.21 1.43.98.87 1.57 2.08t.59 2.91q0 2.04-.73 3.76t-2.16 2.97-3.53 1.95q-2.11.7-4.86.7-1.45 0-2.84-.26t-2.67-.73-2.36-1.1q-1.09-.63-1.92-1.37l1.57-2.59q.3-.47.72-.72.41-.24 1.04-.24t1.2.36q.56.35 1.3.76.75.42 1.75.78 1 .35 2.54.35 1.21 0 2.08-.29t1.43-.75q.56-.47.83-1.09.26-.62.26-1.28 0-.99-.59-1.62-.6-.63-1.57-1.1-.98-.47-2.23-.84t-2.56-.81q-1.3-.44-2.55-1.03-1.26-.59-2.23-1.5-.98-.91-1.57-2.23t-.59-3.19q0-1.73.69-3.3.68-1.56 2.02-2.73 1.33-1.17 3.33-1.87 1.99-.71 4.6-.71 2.92 0 5.31.97 2.39.96 3.99 2.53m33.68 17.87v-4.75q-2.94.13-4.95.5-2 .37-3.21.95t-1.74 1.35q-.52.77-.52 1.68 0 1.78 1.06 2.56 1.06.76 2.76.76 2.09 0 3.62-.75 1.53-.76 2.98-2.3m-14.35-14.82-1.21-2.17q4.87-4.46 11.71-4.46 2.48 0 4.43.81 1.95.82 3.3 2.26t2.05 3.45.7 4.4v17.82h-3.08q-.96 0-1.48-.29-.53-.29-.83-1.17l-.6-2.03q-1.08.96-2.09 1.69-1.02.73-2.12 1.22-1.1.5-2.35.76t-2.77.26q-1.78 0-3.3-.48-1.51-.48-2.61-1.45-1.1-.96-1.7-2.39-.61-1.43-.61-3.33 0-1.07.36-2.13.36-1.05 1.17-2.02.81-.96 2.1-1.81 1.29-.86 3.18-1.49 1.88-.63 4.38-1.03 2.51-.4 5.72-.48v-1.65q0-2.83-1.21-4.19-1.21-1.37-3.49-1.37-1.65 0-2.73.39-1.09.38-1.92.87-.82.48-1.49.86-.68.39-1.5.39-.72 0-1.21-.37-.5-.37-.8-.87m33.25-4.87.46 2.23q.86-.85 1.81-1.58.94-.73 2-1.24t2.27-.8 2.64-.29q2.31 0 4.1.79 1.79.78 2.98 2.2 1.2 1.42 1.82 3.38.62 1.97.62 4.33v17.96h-6.8v-17.96q0-2.58-1.18-4t-3.6-1.42q-1.76 0-3.3.8t-2.92 2.17v20.41h-6.79v-28.21h4.15q1.32 0 1.74 1.23m42.84 18.62v-12.65q-1.15-1.4-2.51-1.98-1.37-.58-2.93-.58-1.54 0-2.78.58t-2.12 1.75-1.35 2.97q-.46 1.8-.46 4.24 0 2.48.4 4.2.39 1.72 1.14 2.8.74 1.09 1.81 1.57t2.39.48q2.12 0 3.61-.88 1.48-.88 2.8-2.5m0-32.51h6.79v40.87h-4.15q-1.35 0-1.7-1.24l-.58-2.72q-1.71 1.95-3.92 3.16t-5.16 1.21q-2.31 0-4.23-.96-1.93-.96-3.31-2.79-1.39-1.83-2.15-4.53-.76-2.69-.76-6.16 0-3.13.86-5.83.85-2.69 2.44-4.67 1.6-1.98 3.83-3.09 2.22-1.12 5-1.12 2.37 0 4.04.74 1.68.75 3 2.01zm35.34 35.09h7.48q2.06 0 3.46-.49 1.41-.49 2.25-1.32.83-.83 1.21-1.93.37-1.1.37-2.33 0-1.29-.42-2.33-.41-1.03-1.29-1.76-.88-.72-2.27-1.11-1.39-.38-3.34-.38h-7.45zm6.3-28.27h-6.3v11.5h5.88q3.8 0 5.74-1.38 1.94-1.37 1.94-4.37 0-3.11-1.76-4.43t-5.5-1.32m-13.7-5.72h13.7q3.9 0 6.68.75 2.78.74 4.55 2.11 1.77 1.38 2.6 3.33.82 1.95.82 4.4 0 1.41-.41 2.68-.41 1.28-1.28 2.4-.86 1.11-2.2 2.02-1.33.9-3.17 1.54 8.19 1.84 8.19 8.85 0 2.53-.96 4.68-.96 2.14-2.81 3.7-1.84 1.55-4.53 2.43-2.7.88-6.16.88h-15.02zm47.63 11.11q3.14 0 5.71 1.02t4.4 2.89 2.82 4.57q.99 2.69.99 6.02 0 3.35-.99 6.05-.99 2.69-2.82 4.59t-4.4 2.92q-2.57 1.01-5.71 1.01-3.16 0-5.75-1.01-2.58-1.02-4.41-2.92t-2.83-4.59q-1.01-2.7-1.01-6.05 0-3.33 1.01-6.02 1-2.7 2.83-4.57t4.41-2.89q2.59-1.02 5.75-1.02m0 23.85q3.52 0 5.21-2.37 1.69-2.36 1.69-6.93 0-4.56-1.69-6.96-1.69-2.39-5.21-2.39-3.57 0-5.29 2.41t-1.72 6.94q0 4.54 1.72 6.92t5.29 2.38m19.2-36.06h6.79v40.87h-6.79zm22.99 41.31q-3.69 0-5.65-2.08-1.97-2.07-1.97-5.73v-15.76h-2.89q-.55 0-.93-.35-.39-.36-.39-1.08v-2.69l4.54-.75 1.43-7.7q.14-.54.52-.85.39-.3.99-.3h3.52v8.88h7.54v4.84h-7.54v15.29q0 1.32.65 2.06.64.75 1.77.75.63 0 1.06-.15t.74-.32q.32-.17.57-.32.24-.15.49-.15.3 0 .5.15.19.15.41.46l2.03 3.3q-1.48 1.24-3.41 1.87-1.92.63-3.98.63m29.81-25.6-1.54 2.45q-.28.44-.58.61-.3.18-.77.18-.5 0-1.06-.27-.56-.28-1.31-.62-.74-.35-1.69-.62-.95-.28-2.24-.28-2.01 0-3.15.86-1.14.85-1.14 2.22 0 .91.59 1.53t1.57 1.09q.98.46 2.21.84 1.24.37 2.52.81t2.52 1q1.23.57 2.21 1.43.98.87 1.57 2.08t.59 2.91q0 2.04-.73 3.76t-2.16 2.97-3.53 1.95q-2.11.7-4.86.7-1.45 0-2.84-.26t-2.67-.73-2.36-1.1q-1.09-.63-1.92-1.37l1.57-2.59q.3-.47.72-.72.41-.24 1.04-.24t1.2.36q.56.35 1.3.76.75.42 1.75.78 1 .35 2.54.35 1.21 0 2.08-.29t1.43-.75q.56-.47.83-1.09.26-.62.26-1.28 0-.99-.59-1.62-.6-.63-1.57-1.1-.98-.47-2.23-.84t-2.56-.81q-1.3-.44-2.55-1.03-1.26-.59-2.23-1.5-.98-.91-1.57-2.23t-.59-3.19q0-1.73.69-3.3.68-1.56 2.02-2.73 1.33-1.17 3.33-1.87 1.99-.71 4.6-.71 2.92 0 5.31.97 2.39.96 3.99 2.53"/></svg>