<svg xmlns="http://www.w3.org/2000/svg" width="600" height="400" viewBox="0 0 600 400"><rect width="100%" height="100%" fill="#1a1a2e"/><path fill="#FFFFFF" d="M176.545 193.36q0 6.52-2.17 11.97t-6.11 9.39q-3.94 3.93-9.47 6.11-5.54 2.17-12.3 2.17h-22.59v-59.29h22.59q6.76 0 12.3 2.2 5.53 2.19 9.47 6.11 3.94 3.91 6.11 9.36 2.17 5.46 2.17 11.98m-11.31 0q0-4.88-1.29-8.76-1.3-3.87-3.74-6.56-2.44-2.68-5.9-4.12-3.46-1.43-7.81-1.43h-11.52v41.74h11.52q4.35 0 7.81-1.44 3.46-1.43 5.9-4.12t3.74-6.56q1.29-3.87 1.29-8.75m28.37-9.88.61 4.75q1.97-3.77 4.68-5.92 2.7-2.15 6.39-2.15 2.91 0 4.68 1.27l-.66 7.58q-.2.74-.59 1.05-.39.3-1.05.3-.61 0-1.82-.2-1.21-.21-2.36-.21-1.68 0-2.99.5-1.32.49-2.36 1.41-1.05.92-1.85 2.23-.8 1.32-1.49 3V223h-10.13v-42.07h5.95q1.55 0 2.17.56.61.55.82 1.99m21.97-2.55h10.17V223h-10.17zm11.57-12.26q0 1.32-.54 2.46-.53 1.15-1.41 2.01t-2.07 1.38q-1.19.51-2.54.51-1.32 0-2.48-.51-1.17-.52-2.03-1.38t-1.38-2.01q-.51-1.14-.51-2.46 0-1.35.51-2.54.52-1.19 1.38-2.05t2.03-1.37q1.16-.51 2.48-.51 1.35 0 2.54.51t2.07 1.37 1.41 2.05q.54 1.19.54 2.54m22.01 54.33h-10.12v-34.44l-3.65-.57q-1.19-.25-1.91-.84-.72-.6-.72-1.71v-4.14h6.28v-3.11q0-3.61 1.08-6.48 1.09-2.87 3.12-4.88t4.94-3.08q2.91-1.06 6.56-1.06 2.91 0 5.41.78l-.2 5.08q-.04.58-.33.92-.29.35-.76.54-.47.18-1.09.24-.61.06-1.31.06-1.8 0-3.22.39-1.41.39-2.4 1.36-.98.96-1.49 2.54t-.51 3.92v2.78h10.94v7.22h-10.62zm30.34.66q-5.49 0-8.42-3.1t-2.93-8.55v-23.49h-4.31q-.82 0-1.39-.53-.58-.54-.58-1.6v-4.02l6.77-1.11 2.13-11.48q.21-.82.78-1.27t1.48-.45h5.24v13.24h11.24v7.22h-11.24v22.79q0 1.97.97 3.08.96 1.11 2.64 1.11.94 0 1.58-.23.64-.22 1.11-.47t.84-.47q.37-.23.74-.23.45 0 .73.23.29.22.62.67l3.03 4.92q-2.21 1.85-5.08 2.79-2.87.95-5.95.95m49.04-59.95v24.85h2.58q1.56 0 2.59-.43 1.02-.43 1.76-1.37l16.36-20.71q1.02-1.31 2.15-1.82 1.13-.52 2.85-.52h9.51l-19.97 24.64q-1.76 2.26-3.64 3.2 1.35.49 2.44 1.38 1.08.88 2.07 2.31l20.58 27.76h-9.72q-1.97 0-2.93-.55-.96-.56-1.62-1.62l-16.77-21.9q-.78-1.1-1.8-1.56-1.03-.45-2.96-.45h-3.48V223h-11.03v-59.29zm43.91 17.22h10.17V223h-10.17zm11.56-12.26q0 1.32-.53 2.46-.53 1.15-1.41 2.01-.89.86-2.08 1.38-1.18.51-2.54.51-1.31 0-2.48-.51-1.17-.52-2.03-1.38t-1.37-2.01q-.51-1.14-.51-2.46 0-1.35.51-2.54t1.37-2.05 2.03-1.37 2.48-.51q1.36 0 2.54.51 1.19.51 2.08 1.37.88.86 1.41 2.05t.53 2.54m17.71 14.11.7 3.32q1.27-1.27 2.69-2.36 1.41-1.08 2.99-1.84t3.38-1.19q1.81-.43 3.94-.43 3.44 0 6.11 1.17 2.66 1.16 4.45 3.28 1.78 2.11 2.7 5.04t.92 6.46V223h-10.12v-26.77q0-3.86-1.77-5.97-1.76-2.11-5.37-2.11-2.62 0-4.92 1.19-2.29 1.19-4.34 3.24V223h-10.13v-42.07h6.19q1.97 0 2.58 1.85m52.85 18.16q1.89 0 3.28-.51 1.4-.51 2.32-1.41.92-.91 1.39-2.18.48-1.27.48-2.79 0-3.11-1.87-4.94-1.87-1.82-5.6-1.82t-5.59 1.82q-1.87 1.83-1.87 4.94 0 1.48.47 2.75t1.4 2.19q.92.93 2.33 1.44 1.42.51 3.26.51m11.44 23.95q0-1.23-.74-2.01-.73-.78-2-1.21-1.28-.43-2.98-.64-1.7-.2-3.6-.31-1.91-.1-3.94-.18t-3.96-.33q-1.68.95-2.72 2.22-1.05 1.27-1.05 2.95 0 1.11.55 2.07.56.96 1.77 1.66t3.13 1.09q1.93.38 4.72.38 2.83 0 4.88-.43t3.38-1.18q1.33-.76 1.95-1.81.61-1.04.61-2.27m-2.01-42.52h12.1v3.77q0 1.81-2.17 2.21l-3.78.7q.86 2.17.86 4.76 0 3.11-1.25 5.64-1.25 2.52-3.46 4.28t-5.23 2.73q-3.01.96-6.5.96-1.23 0-2.37-.12-1.15-.13-2.26-.33-1.97 1.19-1.97 2.66 0 1.27 1.17 1.87 1.17.59 3.1.84 1.92.25 4.38.31t5.05.26q2.58.21 5.04.72t4.39 1.62q1.92 1.11 3.09 3.01 1.17 1.91 1.17 4.9 0 2.79-1.37 5.42-1.38 2.62-3.98 4.67t-6.4 3.3q-3.79 1.25-8.63 1.25-4.75 0-8.28-.92-3.52-.92-5.86-2.46t-3.49-3.55q-1.14-2.01-1.14-4.18 0-2.95 1.78-4.94t4.9-3.18q-1.68-.86-2.67-2.29-.98-1.44-.98-3.78 0-.94.35-1.94.35-1.01 1.02-1.99.68-.99 1.7-1.87 1.03-.88 2.42-1.58-3.19-1.72-5.02-4.59-1.82-2.87-1.82-6.72 0-3.12 1.25-5.64t3.48-4.3q2.24-1.79 5.29-2.73 3.06-.94 6.66-.94 2.71 0 5.09.55t4.34 1.62"/></svg>