<svg xmlns="http://www.w3.org/2000/svg" width="600" height="400" viewBox="0 0 600 400"><rect width="100%" height="100%" fill="#1a1a2e"/><path fill="#FFFFFF" d="M186.17 159.355h9.34v66.52h-10.9v-42.96q0-2.58.28-5.57l-20.11 37.77q-1.42 2.71-4.37 2.71h-1.74q-2.95 0-4.37-2.71l-20.34-37.91q.14 1.52.23 2.99.1 1.47.1 2.72v42.96h-10.91v-66.52h9.34q.83 0 1.43.05t1.08.23.87.6q.39.41.76 1.1l19.92 36.94q.78 1.47 1.45 3.04.67 1.56 1.31 3.22.64-1.71 1.33-3.29.69-1.59 1.48-3.06l19.64-36.85q.37-.69.78-1.1.41-.42.9-.6.48-.18 1.08-.23t1.42-.05m47.29 54.33v-7.96q-4.92.23-8.28.85t-5.38 1.59-2.9 2.25q-.87 1.29-.87 2.81 0 2.99 1.77 4.28t4.62 1.29q3.5 0 6.05-1.27 2.55-1.26 4.99-3.84m-24.01-24.79-2.02-3.64q8.14-7.45 19.59-7.45 4.14 0 7.41 1.36 3.26 1.35 5.52 3.77 2.25 2.41 3.42 5.77 1.18 3.36 1.18 7.36v29.81h-5.15q-1.61 0-2.49-.48-.87-.49-1.38-1.96l-1.01-3.4q-1.79 1.61-3.5 2.83-1.7 1.22-3.54 2.04-1.84.83-3.93 1.27t-4.62.44q-2.99 0-5.52-.81-2.53-.8-4.37-2.41t-2.86-4.01q-1.01-2.39-1.01-5.56 0-1.8.6-3.57t1.95-3.38q1.36-1.61 3.52-3.03 2.17-1.43 5.32-2.49t7.33-1.72q4.19-.67 9.57-.81v-2.76q0-4.74-2.02-7.01-2.03-2.28-5.84-2.28-2.76 0-4.58.64-1.82.65-3.2 1.45-1.38.81-2.51 1.45-1.12.65-2.5.65-1.2 0-2.03-.62-.82-.63-1.33-1.45m57.13-31.38v26.22q2.76-2.57 6.07-4.18 3.32-1.61 7.78-1.61 3.86 0 6.85 1.31t4.99 3.68 3.04 5.66q1.03 3.29 1.03 7.24v30.04h-11.36v-30.04q0-4.32-1.98-6.69-1.97-2.37-6.02-2.37-2.95 0-5.52 1.33-2.58 1.34-4.88 3.64v34.13h-11.36v-68.36zm40.9 21.16h11.4v48.81q0 3.08-.8 5.8-.81 2.71-2.58 4.76-1.77 2.04-4.64 3.22-2.88 1.17-7.02 1.17-1.61 0-2.99-.21-1.38-.2-2.85-.66l.41-6.12q.14-.92.74-1.18.6-.25 2.3-.25t2.87-.34q1.18-.35 1.87-1.11t.99-2 .3-3.08zm12.97-13.75q0 1.47-.6 2.76t-1.59 2.25q-.99.97-2.34 1.55-1.36.57-2.88.57-1.47 0-2.76-.57-1.29-.58-2.25-1.55-.97-.96-1.54-2.25-.58-1.29-.58-2.76 0-1.52.58-2.85.57-1.34 1.54-2.3.96-.97 2.25-1.54 1.29-.58 2.76-.58 1.52 0 2.88.58 1.35.57 2.34 1.54.99.96 1.59 2.3.6 1.33.6 2.85m30.91 13.02q5.24 0 9.54 1.7 4.31 1.7 7.36 4.83 3.06 3.13 4.72 7.64 1.66 4.5 1.66 10.07 0 5.61-1.66 10.12t-4.72 7.68q-3.05 3.18-7.36 4.88-4.3 1.7-9.54 1.7-5.29 0-9.61-1.7-4.33-1.7-7.39-4.88-3.06-3.17-4.74-7.68-1.67-4.51-1.67-10.12 0-5.57 1.67-10.07 1.68-4.51 4.74-7.64t7.39-4.83q4.32-1.7 9.61-1.7m0 39.88q5.89 0 8.72-3.96 2.83-3.95 2.83-11.59 0-7.63-2.83-11.64-2.83-4-8.72-4-5.98 0-8.86 4.03-2.87 4.02-2.87 11.61t2.87 11.57q2.88 3.98 8.86 3.98m41.81-37.08.79 3.73q1.42-1.43 3.01-2.65 1.59-1.21 3.36-2.07 1.77-.85 3.79-1.33 2.03-.48 4.42-.48 3.86 0 6.85 1.31t4.99 3.68 3.04 5.66q1.03 3.29 1.03 7.24v30.04h-11.36v-30.04q0-4.32-1.98-6.69-1.97-2.37-6.02-2.37-2.95 0-5.52 1.33-2.58 1.34-4.88 3.64v34.13h-11.36v-47.2h6.95q2.2 0 2.89 2.07m59.3 20.38q2.11 0 3.68-.57 1.56-.58 2.6-1.59 1.03-1.01 1.56-2.44.53-1.42.53-3.13 0-3.49-2.09-5.54-2.1-2.05-6.28-2.05-4.19 0-6.28 2.05t-2.09 5.54q0 1.66.52 3.09.53 1.42 1.57 2.46 1.03 1.03 2.62 1.61 1.59.57 3.66.57m12.83 26.87q0-1.38-.83-2.26-.82-.87-2.25-1.35-1.43-.49-3.34-.72-1.9-.23-4.04-.34-2.14-.12-4.42-.21t-4.44-.37q-1.88 1.06-3.06 2.49-1.17 1.42-1.17 3.31 0 1.24.62 2.32t1.98 1.86q1.36.79 3.52 1.22 2.16.44 5.29.44 3.17 0 5.47-.48 2.3-.49 3.8-1.34 1.49-.85 2.18-2.02t.69-2.55m-2.25-47.71h13.57v4.24q0 2.02-2.44 2.48l-4.23.78q.96 2.44.96 5.34 0 3.49-1.4 6.32t-3.89 4.81q-2.48 1.98-5.86 3.06t-7.29 1.08q-1.38 0-2.67-.14t-2.53-.37q-2.21 1.34-2.21 2.99 0 1.43 1.31 2.1 1.31.66 3.48.94 2.16.28 4.92.34 2.76.07 5.66.3 2.89.23 5.65.81 2.76.57 4.93 1.82 2.16 1.24 3.47 3.38t1.31 5.49q0 3.13-1.54 6.08-1.54 2.94-4.46 5.24t-7.18 3.7q-4.25 1.41-9.68 1.41-5.34 0-9.29-1.04-3.96-1.03-6.58-2.76-2.62-1.72-3.91-3.98-1.29-2.25-1.29-4.69 0-3.31 2-5.54t5.5-3.57q-1.89-.96-2.99-2.57-1.11-1.61-1.11-4.24 0-1.05.39-2.18.4-1.13 1.15-2.23.76-1.11 1.91-2.1 1.15-.98 2.72-1.77-3.59-1.93-5.64-5.15-2.04-3.22-2.04-7.54 0-3.5 1.4-6.33t3.91-4.83 5.93-3.06q3.43-1.05 7.48-1.05 3.03 0 5.7.62t4.88 1.81"/></svg>