<svg xmlns="http://www.w3.org/2000/svg" width="600" height="400" viewBox="0 0 600 400"><rect width="100%" height="100%" fill="#1a1a2e"/><path fill="#FFFFFF" d="M144.835 177.47h6.88v36.87h-6.88v-16.12h-17.32v16.12h-6.88v-36.87h6.88v15.86h17.32zm14.3 10.71h6.33v26.16h-6.33zm7.19-7.63q0 .82-.33 1.53-.33.72-.88 1.25-.55.54-1.29.86-.73.31-1.58.31-.81 0-1.54-.31-.73-.32-1.26-.86-.54-.53-.86-1.25-.31-.71-.31-1.53 0-.84.31-1.58.32-.74.86-1.27.53-.54 1.26-.86t1.54-.32q.85 0 1.58.32.74.32 1.29.86.55.53.88 1.27t.33 1.58m15.13 20.07q1.17 0 2.04-.32.86-.32 1.44-.88.57-.56.86-1.35.3-.79.3-1.73 0-1.94-1.16-3.08-1.16-1.13-3.48-1.13-2.33 0-3.49 1.13-1.16 1.14-1.16 3.08 0 .91.3 1.71.29.79.86 1.36.58.57 1.46.89t2.03.32m7.11 14.89q0-.76-.46-1.25-.46-.48-1.25-.75t-1.85-.39q-1.06-.13-2.24-.2-1.19-.06-2.45-.11t-2.46-.2q-1.05.58-1.7 1.37t-.65 1.84q0 .69.35 1.29.34.6 1.09 1.03.76.43 1.96.68 1.19.24 2.93.24 1.76 0 3.03-.27 1.28-.27 2.11-.74.82-.47 1.21-1.12.38-.65.38-1.42m-1.25-26.44h7.52v2.35q0 1.12-1.35 1.37l-2.34.44q.53 1.35.53 2.95 0 1.94-.78 3.51-.77 1.57-2.15 2.66-1.38 1.1-3.25 1.7-1.88.6-4.04.6-.77 0-1.48-.08-.72-.07-1.41-.2-1.22.74-1.22 1.66 0 .79.73 1.16.72.37 1.92.52t2.73.19 3.14.17q1.6.12 3.13.44t2.73 1.01 1.93 1.87q.72 1.19.72 3.05 0 1.74-.85 3.37t-2.47 2.91q-1.62 1.27-3.98 2.05t-5.37.78q-2.96 0-5.15-.58-2.19-.57-3.65-1.53-1.45-.95-2.16-2.2-.72-1.25-.72-2.6 0-1.84 1.11-3.08 1.11-1.23 3.05-1.97-1.05-.54-1.66-1.43t-.61-2.35q0-.58.22-1.21.21-.62.63-1.24.42-.61 1.06-1.16.64-.54 1.51-.98-1.99-1.07-3.13-2.85-1.13-1.79-1.13-4.19 0-1.93.77-3.5.78-1.57 2.17-2.68t3.29-1.7q1.9-.58 4.15-.58 1.68 0 3.16.34 1.48.35 2.7 1.01m17.8-12.62v14.53q1.53-1.43 3.37-2.32 1.83-.89 4.3-.89 2.15 0 3.8.73 1.66.72 2.77 2.04 1.11 1.31 1.68 3.13.58 1.83.58 4.02v16.65h-6.3v-16.65q0-2.4-1.1-3.71-1.09-1.32-3.34-1.32-1.63 0-3.06.74t-2.7 2.02v18.92h-6.3v-37.89zm55.03 11.73h4.79l-8.31 26.16h-5.05q-.87 0-1.2-1.12l-4.69-15.12q-.23-.77-.42-1.52t-.32-1.52q-.15.77-.34 1.54-.2.78-.42 1.55l-4.77 15.07q-.31 1.12-1.35 1.12h-4.85l-8.29-26.16h5.03q.68 0 1.17.33.48.33.64.84l3.75 13.97q.28 1.15.49 2.25.22 1.09.37 2.19.28-1.1.6-2.19.32-1.1.68-2.25l4.33-14.02q.16-.51.6-.84.45-.33 1.09-.33h2.77q.67 0 1.14.33t.62.84l4.21 14.02q.33 1.15.63 2.26.29 1.11.57 2.21.33-2.17.94-4.47l3.85-13.97q.18-.51.64-.84t1.1-.33m22.18 19.4v-4.41q-2.73.13-4.59.47-1.86.35-2.98.88-1.12.54-1.61 1.25-.48.72-.48 1.56 0 1.65.98 2.37.98.71 2.56.71 1.94 0 3.36-.7 1.41-.7 2.76-2.13m-13.31-13.74-1.12-2.02q4.51-4.13 10.86-4.13 2.3 0 4.11.75 1.81.76 3.06 2.1 1.25 1.33 1.9 3.2.65 1.86.65 4.08v16.52h-2.86q-.89 0-1.37-.27-.49-.27-.77-1.08l-.56-1.89q-.99.89-1.94 1.57-.94.68-1.96 1.13-1.02.46-2.18.71-1.16.24-2.56.24-1.66 0-3.06-.45-1.41-.44-2.43-1.34-1.02-.89-1.58-2.22-.56-1.32-.56-3.08 0-1 .33-1.98t1.09-1.87q.75-.89 1.95-1.68 1.2-.8 2.94-1.38 1.75-.59 4.07-.96t5.3-.44v-1.53q0-2.63-1.12-3.89-1.12-1.27-3.24-1.27-1.53 0-2.53.36-1.01.36-1.78.81-.76.44-1.39.8-.62.36-1.39.36-.66 0-1.12-.35-.46-.34-.74-.8m44.09-5.66h5.05l-14.25 33.35q-.28.66-.73 1.01-.45.34-1.36.34h-4.7l4.9-10.5-10.58-24.2h5.53q.74 0 1.16.35.42.36.63.82l5.55 13.57q.28.68.48 1.37.19.69.37 1.41.23-.72.45-1.42.23-.7.51-1.39l5.26-13.54q.2-.51.67-.84.48-.33 1.06-.33m47.33-10.71v5.63h-11.12v31.24h-6.86V183.1h-11.12v-5.63zm9.41 12.29.38 2.96q1.23-2.35 2.91-3.69t3.98-1.34q1.81 0 2.9.79l-.4 4.72q-.13.46-.37.65-.25.19-.65.19-.39 0-1.14-.13-.75-.12-1.47-.12-1.04 0-1.86.3-.81.31-1.46.88-.65.58-1.15 1.39-.5.82-.93 1.86v16.12h-6.3v-26.16h3.7q.97 0 1.35.34.38.35.51 1.24m27.28 17.82v-4.41q-2.72.13-4.59.47-1.86.35-2.98.88-1.12.54-1.61 1.25-.48.72-.48 1.56 0 1.65.98 2.37.98.71 2.56.71 1.94 0 3.36-.7 1.41-.7 2.76-2.13m-13.31-13.74-1.12-2.02q4.51-4.13 10.86-4.13 2.3 0 4.11.75 1.81.76 3.06 2.1 1.25 1.33 1.9 3.2.65 1.86.65 4.08v16.52h-2.86q-.89 0-1.37-.27-.49-.27-.77-1.08l-.56-1.89q-.99.89-1.94 1.57-.94.68-1.96 1.13-1.02.46-2.18.71-1.16.24-2.56.24-1.66 0-3.06-.45-1.41-.44-2.43-1.34-1.02-.89-1.58-2.22-.56-1.32-.56-3.08 0-1 .33-1.98t1.09-1.87q.75-.89 1.95-1.68 1.2-.8 2.94-1.38 1.75-.59 4.07-.96t5.3-.44v-1.53q0-2.63-1.12-3.89-1.12-1.27-3.24-1.27-1.53 0-2.53.36-1.01.36-1.78.81-.76.44-1.39.8-.62.36-1.39.36-.66 0-1.12-.35-.46-.34-.74-.8m33.51 20.5h-6.3v-21.42l-2.27-.36q-.74-.15-1.18-.52-.45-.37-.45-1.06v-2.57h3.9v-1.94q0-2.25.68-4.03.67-1.79 1.94-3.04 1.26-1.24 3.07-1.91 1.81-.66 4.08-.66 1.81 0 3.36.48l-.12 3.17q-.03.35-.21.57t-.47.33q-.29.12-.67.15-.39.04-.82.04-1.12 0-2 .24-.88.25-1.49.85-.62.6-.93 1.58-.32.98-.32 2.43v1.74h6.8v4.48h-6.6zm18.28 0h-6.29v-21.42l-2.27-.36q-.74-.15-1.19-.52t-.45-1.06v-2.57h3.91v-1.94q0-2.25.67-4.03.68-1.79 1.94-3.04 1.26-1.24 3.07-1.91 1.81-.66 4.08-.66 1.81 0 3.37.48l-.13 3.17q-.03.35-.2.57-.18.22-.48.33-.29.12-.67.15-.38.04-.82.04-1.12 0-2 .24-.88.25-1.49.85t-.93 1.58-.32 2.43v1.74h6.81v4.48h-6.61zm10.36-26.16h6.32v26.16h-6.32zm7.19-7.63q0 .82-.33 1.53-.34.72-.88 1.25-.55.54-1.29.86-.74.31-1.58.31-.82 0-1.54-.31-.73-.32-1.27-.86-.53-.53-.85-1.25-.32-.71-.32-1.53 0-.84.32-1.58t.85-1.27q.54-.54 1.27-.86.72-.32 1.54-.32.84 0 1.58.32t1.29.86q.54.53.88 1.27.33.74.33 1.58m25.96 10.87-1.66 2.29q-.28.36-.55.56-.27.21-.78.21-.48 0-.94-.3-.46-.29-1.1-.66-.63-.37-1.51-.66-.88-.3-2.18-.3-1.66 0-2.91.6t-2.08 1.72q-.83 1.13-1.24 2.72-.4 1.59-.4 3.61 0 2.09.44 3.72.45 1.63 1.29 2.74t2.04 1.68q1.2.58 2.7.58 1.51 0 2.44-.37t1.57-.82q.63-.44 1.11-.81.47-.37 1.05-.37.77 0 1.15.58l1.81 2.3q-1.04 1.22-2.27 2.05-1.22.83-2.53 1.33-1.32.49-2.71.7-1.39.2-2.76.2-2.43 0-4.57-.9-2.14-.91-3.75-2.64-1.6-1.74-2.53-4.25-.94-2.51-.94-5.72 0-2.88.83-5.34.83-2.47 2.44-4.26 1.6-1.8 3.98-2.82 2.37-1.02 5.45-1.02 2.94 0 5.14.94 2.21.95 3.97 2.71"/></svg>