<svg xmlns="http://www.w3.org/2000/svg" width="600" height="400" viewBox="0 0 600 400"><rect width="100%" height="100%" fill="#1a1a2e"/><path fill="#FFFFFF" d="M130.25 199.245h5.54q2.51 0 4.38-.63 1.86-.63 3.06-1.73 1.21-1.11 1.8-2.63.6-1.52.6-3.33 0-3.63-2.4-5.58-2.39-1.94-7.3-1.94h-5.68zm16.43 7.39 11.95 17.62h-8.02q-2.28 0-3.3-1.78l-10.03-15.28q-.56-.86-1.24-1.22t-2-.36h-3.79v18.64h-8.88v-47.72h14.56q4.85 0 8.33 1.01 3.48 1 5.71 2.82 2.22 1.81 3.28 4.34 1.06 2.52 1.06 5.56 0 2.41-.71 4.55-.71 2.15-2.05 3.9t-3.3 3.07-4.47 2.08q.86.49 1.58 1.17.73.67 1.32 1.6m33.73 8.87v-5.7q-3.53.16-5.94.61-2.41.44-3.86 1.13-1.45.7-2.08 1.62-.63.93-.63 2.01 0 2.15 1.27 3.07 1.27.93 3.32.93 2.51 0 4.34-.91t3.58-2.76m-17.23-17.78-1.45-2.61q5.84-5.34 14.06-5.34 2.97 0 5.31.97 2.35.97 3.96 2.7 1.62 1.74 2.46 4.15.84 2.4.84 5.28v21.38h-3.69q-1.16 0-1.79-.35-.62-.34-.99-1.4l-.72-2.44q-1.29 1.15-2.51 2.03-1.22.87-2.54 1.47-1.32.59-2.82.9-1.5.32-3.32.32-2.14 0-3.96-.58-1.81-.58-3.13-1.73-1.32-1.16-2.05-2.87-.73-1.72-.73-4 0-1.28.43-2.55t1.41-2.43q.97-1.15 2.52-2.18 1.55-1.02 3.81-1.78t5.27-1.24q3-.47 6.86-.57v-1.98q0-3.4-1.45-5.04-1.45-1.63-4.19-1.63-1.98 0-3.29.46-1.3.46-2.29 1.04t-1.8 1.04-1.8.46q-.86 0-1.45-.44-.59-.45-.96-1.04m59.24-3.14-2.15 2.97q-.36.46-.71.73-.34.26-1 .26-.63 0-1.22-.38-.6-.38-1.42-.85-.83-.48-1.97-.86-1.13-.38-2.82-.38-2.14 0-3.76.77-1.62.78-2.69 2.23t-1.6 3.52q-.53 2.06-.53 4.66 0 2.71.58 4.82t1.67 3.55 2.64 2.18 3.49.74q1.95 0 3.16-.48 1.2-.48 2.03-1.05.82-.58 1.43-1.06t1.37-.48q.99 0 1.49.76l2.34 2.97q-1.35 1.58-2.94 2.66-1.58 1.07-3.28 1.71-1.7.65-3.5.91t-3.58.26q-3.14 0-5.91-1.17t-4.85-3.41q-2.08-2.25-3.28-5.5-1.21-3.25-1.21-7.41 0-3.72 1.08-6.91 1.07-3.18 3.15-5.51t5.15-3.65q3.06-1.32 7.06-1.32 3.79 0 6.65 1.23 2.85 1.22 5.13 3.49m11.85 8.85h15.37q0-1.59-.44-2.99-.45-1.4-1.34-2.46-.89-1.05-2.26-1.66-1.37-.62-3.18-.62-3.53 0-5.56 2.02-2.03 2.01-2.59 5.71m20.79 4.91H234.1q.2 2.61.92 4.51.73 1.9 1.92 3.13 1.19 1.24 2.82 1.85t3.61.61 3.42-.46q1.43-.46 2.51-1.02 1.07-.56 1.88-1.03.81-.46 1.57-.46 1.02 0 1.51.76l2.35 2.97q-1.36 1.58-3.04 2.66-1.68 1.07-3.51 1.71-1.84.65-3.73.91-1.9.26-3.68.26-3.53 0-6.57-1.17t-5.28-3.46q-2.24-2.3-3.53-5.68t-1.29-7.84q0-3.46 1.12-6.51 1.13-3.06 3.22-5.32 2.1-2.26 5.12-3.58t6.81-1.32q3.2 0 5.91 1.03 2.7 1.02 4.65 2.98 1.95 1.97 3.05 4.82 1.11 2.86 1.11 6.52 0 1.85-.4 2.49-.39.64-1.51.64m58.11 4.66q.72 0 1.29.56l3.49 3.79q-2.9 3.6-7.14 5.51-4.24 1.92-10.18 1.92-5.31 0-9.56-1.82-4.24-1.81-7.24-5.05-3-3.23-4.6-7.72t-1.6-9.8q0-5.38 1.71-9.85 1.72-4.47 4.84-7.7 3.12-3.24 7.44-5.04t9.57-1.8q5.21 0 9.26 1.72 4.04 1.72 6.88 4.49l-2.97 4.12q-.27.4-.68.7-.41.29-1.14.29-.49 0-1.02-.28t-1.16-.69q-.62-.41-1.45-.91-.82-.49-1.91-.91-1.09-.41-2.53-.69-1.43-.28-3.31-.28-3.2 0-5.86 1.14t-4.57 3.3q-1.92 2.16-2.97 5.28-1.06 3.12-1.06 7.11 0 4.03 1.14 7.16 1.14 3.14 3.09 5.28 1.94 2.15 4.58 3.29 2.64 1.13 5.68 1.13 1.81 0 3.28-.19 1.47-.2 2.71-.63t2.34-1.11q1.11-.67 2.2-1.66.33-.3.69-.48t.76-.18m9.7-37.79h8.15v49.04h-8.15zm16.57 15.18h8.18v33.86h-8.18zm9.3-9.87q0 1.06-.43 1.98-.43.93-1.14 1.62-.7.69-1.66 1.11-.96.41-2.05.41-1.05 0-1.99-.41-.94-.42-1.64-1.11-.69-.69-1.1-1.62-.42-.92-.42-1.98 0-1.08.42-2.04.41-.96 1.1-1.65.7-.69 1.64-1.11.94-.41 1.99-.41 1.09 0 2.05.41.96.42 1.66 1.11.71.69 1.14 1.65t.43 2.04m33.6 14.06-2.15 2.97q-.36.46-.71.73-.34.26-1 .26-.63 0-1.23-.38-.59-.38-1.41-.85-.83-.48-1.97-.86t-2.82-.38q-2.14 0-3.76.77-1.62.78-2.69 2.23t-1.6 3.52q-.53 2.06-.53 4.66 0 2.71.58 4.82t1.66 3.55q1.09 1.44 2.64 2.18 1.56.74 3.5.74 1.95 0 3.15-.48 1.21-.48 2.03-1.05.83-.58 1.44-1.06t1.37-.48q.99 0 1.48.76l2.35 2.97q-1.36 1.58-2.94 2.66-1.58 1.07-3.28 1.71-1.7.65-3.5.91t-3.58.26q-3.14 0-5.91-1.17t-4.85-3.41q-2.08-2.25-3.28-5.5-1.21-3.25-1.21-7.41 0-3.72 1.07-6.91 1.08-3.18 3.16-5.51 2.07-2.33 5.14-3.65t7.07-1.32q3.79 0 6.64 1.23 2.86 1.22 5.14 3.49m5.41-19.37h8.15v28.08h1.52q.82 0 1.3-.21t.97-.87l8.42-10.4q.53-.69 1.17-1.06.64-.36 1.67-.36h7.46l-10.53 12.57q-1.12 1.49-2.44 2.28.69.5 1.23 1.16.55.66 1.04 1.42l11.29 16.43h-7.36q-.96 0-1.65-.31-.69-.32-1.15-1.14l-8.65-12.84q-.46-.76-.96-.99-.49-.23-1.48-.23h-1.85v15.51h-8.15zm41.71 28.22h15.38q0-1.59-.45-2.99-.44-1.4-1.33-2.46-.89-1.05-2.26-1.66-1.37-.62-3.19-.62-3.53 0-5.56 2.02-2.03 2.01-2.59 5.71m20.79 4.91H429.3q.19 2.61.92 4.51t1.91 3.13q1.19 1.24 2.82 1.85 1.64.61 3.62.61t3.41-.46q1.44-.46 2.51-1.02t1.88-1.03q.81-.46 1.57-.46 1.02 0 1.52.76l2.34 2.97q-1.35 1.58-3.03 2.66-1.69 1.07-3.52 1.71-1.83.65-3.73.91t-3.68.26q-3.53 0-6.56-1.17-3.04-1.17-5.28-3.46-2.25-2.3-3.54-5.68-1.28-3.38-1.28-7.84 0-3.46 1.12-6.51 1.12-3.06 3.22-5.32 2.09-2.26 5.11-3.58t6.82-1.32q3.2 0 5.9 1.03 2.71 1.02 4.66 2.98 1.94 1.97 3.05 4.82 1.1 2.86 1.1 6.52 0 1.85-.39 2.49-.4.64-1.52.64m15.21-15.9.5 3.83q1.58-3.04 3.76-4.77t5.15-1.73q2.34 0 3.76 1.02l-.53 6.1q-.16.6-.48.84-.31.25-.84.25-.49 0-1.47-.16-.97-.17-1.89-.17-1.36 0-2.41.4-1.06.39-1.9 1.14-.84.74-1.49 1.79-.64 1.06-1.2 2.41v20.86h-8.15v-33.86h4.78q1.26 0 1.75.45.5.44.66 1.6"/></svg>