<svg xmlns="http://www.w3.org/2000/svg" width="600" height="400" viewBox="0 0 600 400"><rect width="100%" height="100%" fill="#1a1a2e"/><path fill="#FFFFFF" d="m146.115 178.7-1.95 3.68q-.34.61-.74.89-.39.27-.97.27-.61 0-1.32-.45t-1.69-1q-.99-.55-2.31-1t-3.12-.45q-1.62 0-2.84.39-1.22.4-2.04 1.09-.83.7-1.24 1.67-.4.97-.4 2.13 0 1.48.83 2.47.82.98 2.18 1.68 1.37.69 3.11 1.24 1.74.56 3.56 1.18 1.83.62 3.57 1.45t3.1 2.09q1.37 1.26 2.19 3.09.83 1.82.83 4.43 0 2.85-.97 5.32-.97 2.48-2.84 4.33-1.87 1.84-4.57 2.9-2.7 1.05-6.18 1.05-2 0-3.94-.39t-3.73-1.11q-1.78-.73-3.35-1.74-1.56-1.02-2.78-2.27l2.29-3.74q.29-.4.75-.68.47-.27.99-.27.72 0 1.57.59.84.6 2 1.32t2.71 1.32q1.55.59 3.72.59 3.34 0 5.17-1.58 1.82-1.58 1.82-4.54 0-1.65-.82-2.69-.83-1.05-2.19-1.76-1.37-.71-3.11-1.2t-3.53-1.07q-1.8-.58-3.54-1.4-1.74-.81-3.1-2.11-1.37-1.31-2.19-3.26-.83-1.96-.83-4.83 0-2.29.91-4.47.92-2.17 2.66-3.86 1.74-1.68 4.29-2.69 2.55-1.02 5.86-1.02 3.71 0 6.84 1.16t5.34 3.25m25.08 29.17v-13.34q-1.19-1.48-2.64-2.08-1.45-.61-3.1-.61-1.62 0-2.93.61-1.3.6-2.23 1.84-.93 1.23-1.42 3.13-.5 1.9-.5 4.48 0 2.61.42 4.42.42 1.82 1.21 2.96.78 1.15 1.91 1.65 1.13.51 2.52.51 2.24 0 3.8-.93 1.57-.93 2.96-2.64m2.79-20.93h4.37v39.46h-7.16v-13.48q-1.77 1.88-4 3.04t-5.19 1.16q-2.44 0-4.47-1.01t-3.49-2.94q-1.47-1.93-2.26-4.77-.8-2.85-.8-6.5 0-3.31.9-6.15t2.58-4.93 4.03-3.26q2.35-1.18 5.28-1.18 2.78 0 4.67.96 1.88.96 3.36 2.58l.38-1.68q.37-1.3 1.8-1.3m29.92 0h7.17v29.75h-4.38q-1.42 0-1.8-1.31l-.49-2.37q-1.83 1.85-4.03 3-2.21 1.14-5.2 1.14-2.43 0-4.3-.82-1.87-.83-3.15-2.34-1.27-1.51-1.93-3.58-.65-2.07-.65-4.57v-18.9h7.16v18.9q0 2.73 1.27 4.22 1.26 1.5 3.78 1.5 1.86 0 3.48-.83t3.07-2.28zm14.47 0h7.2v29.75h-7.2zm8.18-8.68q0 .93-.37 1.74-.38.82-1 1.43-.63.6-1.47.97-.84.36-1.8.36-.93 0-1.75-.36-.83-.37-1.44-.97-.61-.61-.97-1.43-.36-.81-.36-1.74 0-.95.36-1.79t.97-1.45 1.44-.97q.82-.37 1.75-.37.96 0 1.8.37.84.36 1.47.97.62.61 1 1.45.37.84.37 1.79m25 29.61v-13.34q-1.22-1.48-2.65-2.08-1.44-.61-3.09-.61-1.63 0-2.93.61-1.31.6-2.23 1.84-.93 1.23-1.42 3.13-.5 1.9-.5 4.48 0 2.61.42 4.42.42 1.82 1.21 2.96.78 1.15 1.91 1.65 1.13.51 2.52.51 2.24 0 3.8-.93 1.57-.93 2.96-2.64m0-34.27h7.16v43.09h-4.38q-1.42 0-1.79-1.31l-.61-2.87q-1.8 2.06-4.13 3.34-2.34 1.27-5.44 1.27-2.44 0-4.47-1.01t-3.49-2.94q-1.47-1.93-2.26-4.77-.8-2.85-.8-6.5 0-3.31.9-6.15t2.58-4.93 4.03-3.26q2.35-1.18 5.28-1.18 2.49 0 4.26.79 1.77.78 3.16 2.11zm53.74 5.1-1.95 3.68q-.34.61-.73.89-.4.27-.98.27-.61 0-1.32-.45t-1.69-1q-.99-.55-2.31-1t-3.12-.45q-1.62 0-2.84.39-1.22.4-2.04 1.09-.83.7-1.23 1.67-.41.97-.41 2.13 0 1.48.83 2.47.82.98 2.19 1.68 1.36.69 3.1 1.24 1.74.56 3.57 1.18 1.82.62 3.56 1.45t3.11 2.09q1.36 1.26 2.19 3.09.82 1.82.82 4.43 0 2.85-.97 5.32-.97 2.48-2.84 4.33-1.87 1.84-4.57 2.9-2.7 1.05-6.18 1.05-2 0-3.94-.39t-3.73-1.11q-1.78-.73-3.35-1.74-1.56-1.02-2.78-2.27l2.29-3.74q.29-.4.75-.68.47-.27.99-.27.73 0 1.57.59.84.6 2 1.32t2.71 1.32q1.55.59 3.73.59 3.33 0 5.16-1.58 1.82-1.58 1.82-4.54 0-1.65-.82-2.69-.83-1.05-2.19-1.76t-3.1-1.2-3.54-1.07-3.54-1.4q-1.74-.81-3.1-2.11-1.37-1.31-2.19-3.26-.83-1.96-.83-4.83 0-2.29.91-4.47.92-2.17 2.66-3.86 1.74-1.68 4.29-2.69 2.55-1.02 5.86-1.02 3.71 0 6.84 1.16t5.34 3.25m13.57-5.1v16.53q1.74-1.63 3.83-2.64 2.09-1.02 4.9-1.02 2.43 0 4.32.83 1.88.82 3.15 2.32 1.26 1.49 1.91 3.57.65 2.07.65 4.56v18.94h-7.16v-18.94q0-2.72-1.25-4.22-1.24-1.49-3.8-1.49-1.85 0-3.48.84-1.62.84-3.07 2.29v21.52h-7.16V173.6zm38.71 12.87q3.31 0 6.02 1.07 2.71 1.08 4.64 3.05t2.97 4.81q1.05 2.85 1.05 6.35 0 3.54-1.05 6.39-1.04 2.84-2.97 4.84t-4.64 3.07-6.02 1.07q-3.33 0-6.06-1.07-2.72-1.07-4.65-3.07t-2.99-4.84q-1.06-2.85-1.06-6.39 0-3.5 1.06-6.35 1.06-2.84 2.99-4.81t4.65-3.05q2.73-1.07 6.06-1.07m0 25.14q3.72 0 5.5-2.49t1.78-7.31q0-4.81-1.78-7.33-1.78-2.53-5.5-2.53-3.77 0-5.58 2.54t-1.81 7.32q0 4.79 1.81 7.3 1.81 2.5 5.58 2.5m33.33-25.14q3.3 0 6.01 1.07 2.71 1.08 4.64 3.05t2.98 4.81q1.04 2.85 1.04 6.35 0 3.54-1.04 6.39-1.05 2.84-2.98 4.84t-4.64 3.07-6.01 1.07q-3.34 0-6.07-1.07-2.72-1.07-4.65-3.07t-2.99-4.84q-1.06-2.85-1.06-6.39 0-3.5 1.06-6.35 1.06-2.84 2.99-4.81t4.65-3.05q2.73-1.07 6.07-1.07m0 25.14q3.71 0 5.49-2.49t1.78-7.31q0-4.81-1.78-7.33-1.78-2.53-5.49-2.53-3.77 0-5.59 2.54-1.81 2.54-1.81 7.32 0 4.79 1.81 7.3 1.82 2.5 5.59 2.5m30.07 5.54q-3.89 0-5.96-2.19t-2.07-6.04V192.3h-3.05q-.58 0-.99-.38-.4-.37-.4-1.13v-2.84l4.78-.78 1.51-8.12q.15-.58.55-.9.41-.32 1.05-.32h3.71v9.37h7.94v5.1h-7.94v16.12q0 1.4.68 2.18t1.87.78q.67 0 1.12-.16t.78-.33.59-.33q.27-.16.53-.16.32 0 .52.16t.43.47l2.15 3.48q-1.57 1.31-3.6 1.98-2.03.66-4.2.66m17.31-18.76h13.52q0-1.39-.4-2.62-.39-1.24-1.17-2.16-.78-.93-1.99-1.47-1.2-.54-2.8-.54-3.1 0-4.88 1.77-1.79 1.77-2.28 5.02m18.27 4.32h-18.41q.17 2.29.81 3.96t1.68 2.76q1.04 1.08 2.48 1.62t3.18.54 3-.41 2.2-.9 1.65-.9q.71-.4 1.38-.4.9 0 1.34.66l2.05 2.61q-1.18 1.39-2.66 2.34-1.48.94-3.09 1.51-1.61.56-3.28.79t-3.23.23q-3.11 0-5.77-1.02-2.67-1.03-4.64-3.05-1.98-2.02-3.11-4.99t-1.13-6.89q0-3.04.99-5.72.98-2.69 2.83-4.67 1.84-1.99 4.49-3.15t5.99-1.16q2.81 0 5.19.9t4.09 2.63q1.71 1.72 2.68 4.23t.97 5.73q0 1.62-.34 2.19-.35.56-1.34.56m13.37-13.98.44 3.37q1.39-2.67 3.3-4.19 1.92-1.53 4.53-1.53 2.05 0 3.3.9l-.46 5.37q-.15.52-.42.74-.28.22-.74.22-.44 0-1.29-.15-.86-.14-1.67-.14-1.19 0-2.12.34-.93.35-1.66 1-.74.66-1.31 1.58-.57.93-1.06 2.12v18.33h-7.16v-29.75h4.2q1.11 0 1.54.39.44.39.58 1.4"/></svg>